<svg width="334" height="500" viewBox="0 0 334 500" fill="none" xmlns="http://www.w3.org/2000/svg">
<path d="M40.3022 385.343L173.312 308.551L306.324 385.343L173.314 462.14L40.3022 385.343Z" fill="#EDE9FE"/>
<path d="M173.317 325.203L173.316 198.463L289.936 265.794L180.178 329.162L173.317 325.203Z" fill="#C4B5FD"/>
<path d="M173.316 325.203V198.463L56.6973 265.794L166.456 329.162L173.316 325.203Z" fill="#C4B5FD"/>
<path opacity="0.1" d="M173.316 325.203V198.463L56.6973 265.794L166.456 329.162L173.316 325.203Z" fill="#8B5CF6"/>
<path d="M173.317 333.124L166.457 329.163L173.317 325.203L180.176 329.163L173.317 333.124Z" fill="#C4B5FD"/>
<path opacity="0.45" d="M173.317 333.124L166.457 329.163L173.317 325.203L180.176 329.163L173.317 333.124Z" fill="#8B5CF6"/>
<path d="M84.1532 259.791C85.2402 259.749 86.3982 259.793 87.6322 259.928C92.2152 260.43 96.6302 262.561 99.8132 265.905C100.628 262.701 103.247 260.106 106.349 258.962C109.445 257.821 112.06 257.754 115.192 259.198C114.098 254.067 115.586 248.452 119.077 244.535C126.192 236.551 138.001 237.293 144.067 245.922C144.695 239.671 149.746 234.102 155.657 232.412C161.568 230.721 169.582 230.782 175.607 240.214C178.72 232.786 184.803 231.516 192.83 230.852C200.857 230.188 209.099 234.304 213.39 241.12C217.704 239.877 222.655 241.194 225.78 244.417C228.906 247.64 230.071 252.628 228.697 256.902C235.857 252.849 245.516 256.377 246.42 264.554C251.452 260.472 258.316 258.653 265.597 261.049C273.287 263.58 277.444 268.003 280.231 273.854C285.273 284.442 280.998 296.972 276.013 307.587C273.376 313.202 270.529 318.75 266.917 323.793C253.593 342.396 231.004 352.421 208.468 356.383C173.119 362.598 135.589 355.496 104.956 336.794C90.9422 328.238 69.0732 315.198 63.8732 299.624C59.2892 285.9 65.1012 260.519 84.1532 259.791Z" fill="#FFF7ED"/>
<path d="M252.81 290.161C243.696 296.841 230.935 298.169 220.641 293.509C213.478 304.913 196.696 308.901 185.169 301.937C181.928 306.489 176.166 309.116 170.604 308.577C165.041 308.038 159.891 304.354 157.584 299.264C151.121 301.531 143.321 295.476 143.915 288.653C139.625 289.906 135.117 290.939 130.717 290.157C126.318 289.375 122.041 286.36 121.046 282.003C119.704 276.131 124.792 270.449 130.49 268.496C124.325 265.99 119.888 259.702 119.594 253.054C119.395 248.565 121.098 244.077 124.045 240.696C122.251 241.609 120.56 242.871 119.079 244.533C115.588 248.45 114.101 254.065 115.194 259.196C112.062 257.752 109.446 257.82 106.351 258.96C103.249 260.103 100.63 262.698 99.8152 265.903C96.6322 262.559 92.2172 260.428 87.6342 259.926C86.4002 259.791 85.2422 259.748 84.1552 259.789C65.1032 260.517 59.2912 285.898 63.8742 299.623C69.0742 315.197 90.9432 328.237 104.957 336.793C135.591 355.495 173.12 362.597 208.469 356.382C216.703 354.934 224.939 352.667 232.732 349.478C249.122 334.599 258.712 311.37 252.81 290.161Z" fill="#FFEDD5"/>
<path d="M173.317 444.021V333.124L289.936 265.794L276.217 384.612L173.317 444.021Z" fill="#C4B5FD"/>
<path opacity="0.45" d="M173.317 444.021V333.124L289.936 265.794L276.217 384.612L173.317 444.021Z" fill="#FFEDD5"/>
<path d="M244.4 292.084L224.09 303.72L222.213 415.791L239.584 405.762L244.4 292.084Z" fill="#C4B5FD"/>
<path opacity="0.15" d="M244.4 292.084L224.09 303.72L222.213 415.791L239.584 405.762L244.4 292.084Z" fill="#8B5CF6"/>
<path d="M173.317 444.021V333.124L56.6982 265.794L70.4182 384.612L173.317 444.021Z" fill="#C4B5FD"/>
<path opacity="0.3" d="M173.317 444.021V333.124L56.6982 265.794L70.4182 384.612L173.317 444.021Z" fill="#FFEDD5"/>
<path d="M102.234 292.084L122.544 303.72L124.421 415.791L107.05 405.762L102.234 292.084Z" fill="#C4B5FD"/>
<path opacity="0.4" d="M102.234 292.084L122.544 303.72L124.421 415.791L107.05 405.762L102.234 292.084Z" fill="#8B5CF6"/>
<path d="M170.157 203.518L163.478 238.648L57.3804 147.199L55.1494 145.272L61.8144 110.142L170.157 203.518Z" fill="#C4B5FD"/>
<path opacity="0.3" d="M170.157 203.518L163.478 238.648L57.3804 147.199L55.1494 145.272L61.8144 110.142L170.157 203.518Z" fill="#FFEDD5"/>
<path d="M305.206 156.386L298.526 191.517L163.479 238.648L170.158 203.518L305.206 156.386Z" fill="#C4B5FD"/>
<path opacity="0.45" d="M305.206 156.386L298.526 191.517L163.479 238.648L170.158 203.518L305.206 156.386Z" fill="#FFEDD5"/>
<path d="M305.203 156.38L196.862 63L61.8193 110.136L170.161 203.519L305.203 156.38Z" fill="#C4B5FD"/>
<g opacity="0.6">
<path d="M305.203 156.38L196.862 63L61.8193 110.136L170.161 203.519L305.203 156.38Z" fill="#FFEDD5"/>
</g>
<path d="M218.332 219.505L240.269 211.848L246.944 176.72L225.006 184.376L218.332 219.505Z" fill="#C4B5FD"/>
<path opacity="0.15" d="M218.332 219.505L240.269 211.848L246.944 176.72L225.006 184.376L218.332 219.505Z" fill="#8B5CF6"/>
<path d="M101.885 185.559L119.486 200.729L126.161 165.599L108.56 150.429L101.885 185.559Z" fill="#C4B5FD"/>
<path opacity="0.4" d="M101.885 185.559L119.486 200.729L126.161 165.599L108.56 150.429L101.885 185.559Z" fill="#8B5CF6"/>
<path d="M246.944 176.717L138.6 83.3359L116.662 90.9939L225.006 184.375L246.944 176.717Z" fill="#C4B5FD"/>
<path opacity="0.25" d="M182.446 147.694L204.384 140.036L186.782 124.865L164.845 132.523L182.446 147.694Z" fill="#8B5CF6"/>
<path d="M126.162 165.594L261.203 118.455L243.602 103.285L108.561 150.424L126.162 165.594Z" fill="#C4B5FD"/>
<path d="M181.227 146.094L180.229 200.005L176.55 274.815L200.268 255.6L201.72 192.503L186.897 138.866L181.227 146.094Z" fill="#C4B5FD"/>
<path d="M186.835 142.508L263.214 162.036L280.473 147.11L188.307 135.091L186.835 142.508Z" fill="#C4B5FD"/>
<path d="M113.947 87.1089C113.947 87.1089 114.553 108.399 136.21 121.487C157.867 134.574 184.719 142.444 184.719 142.444L145.597 66.9219L113.947 87.1089Z" fill="#C4B5FD"/>
<path opacity="0.4" d="M113.947 87.1089C113.947 87.1089 114.553 108.399 136.21 121.487C157.867 134.574 184.719 142.444 184.719 142.444L145.597 66.9219L113.947 87.1089Z" fill="#8B5CF6"/>
<path d="M184.719 142.444C184.719 142.444 189.743 122.644 182.812 105.287C175.881 87.9299 145.597 66.9219 145.597 66.9219C133.771 72.3729 123.415 79.2959 113.947 87.1079C113.947 87.1079 158.294 96.6309 180.399 140.749L184.719 142.444Z" fill="#C4B5FD"/>
<path opacity="0.3" d="M140.593 98.4229C147.355 102.437 154.644 107.745 161.603 114.717L181.402 102.31C177.408 94.7929 169.772 86.8919 162.556 80.4519L140.593 98.4229Z" fill="#FFEDD5"/>
<path d="M184.718 142.444C184.718 142.444 175.988 153.827 158.242 158.025C140.496 162.224 113.802 155.838 113.802 155.838L118.776 121.523C118.776 121.523 123.976 138.219 143.611 142.928C163.408 147.676 179.086 138.164 179.086 138.164L184.718 142.444Z" fill="#C4B5FD"/>
<path opacity="0.4" d="M184.718 142.444C184.718 142.444 175.988 153.827 158.242 158.025C140.496 162.224 113.802 155.838 113.802 155.838L118.776 121.523C118.776 121.523 123.976 138.219 143.611 142.928C163.408 147.676 179.086 138.164 179.086 138.164L184.718 142.444Z" fill="#8B5CF6"/>
<path d="M184.718 142.444C171.774 121.615 156.459 116.463 141.403 116.615C124.75 116.783 118.776 121.523 118.776 121.523L113.802 155.838C113.802 155.838 125.964 141.247 150.426 138.935C174.888 136.623 184.718 142.444 184.718 142.444Z" fill="#C4B5FD"/>
<path opacity="0.3" d="M127.789 118.068C130.435 124.532 134.586 135.052 137.201 141.71C141.15 140.456 145.47 139.404 150.429 138.936C155.322 138.473 159.475 138.397 163.236 138.474L152.597 117.643C148.878 116.872 145.134 116.578 141.406 116.616C135.617 116.673 131.194 117.296 127.789 118.068Z" fill="#FFEDD5"/>
<path d="M184.622 138.476C184.622 138.476 208.913 140.358 229.141 126.52C249.37 112.682 258.299 89.045 258.299 89.045L232.762 63.825C232.762 63.825 236.67 87.6439 217.237 108.496C202.643 124.156 187.17 124.583 187.17 124.583L184.622 138.476Z" fill="#C4B5FD"/>
<path opacity="0.4" d="M184.622 138.476C184.622 138.476 208.913 140.358 229.141 126.52C249.37 112.682 258.299 89.045 258.299 89.045L232.762 63.825C232.762 63.825 236.67 87.6439 217.237 108.496C202.643 124.156 187.17 124.583 187.17 124.583L184.622 138.476Z" fill="#8B5CF6"/>
<path d="M184.622 138.476L189.17 138.544C189.17 138.544 197.296 113.61 222.351 99.195C248.399 84.208 258.299 89.045 258.299 89.045C251.555 78.385 242.479 70.698 232.762 63.825C232.762 63.825 211.976 70.468 200.447 83.88C186.627 99.957 183.802 127.658 184.622 138.476Z" fill="#C4B5FD"/>
<path opacity="0.3" d="M203.07 81.108C202.996 81.18 202.917 81.246 202.844 81.318C202.011 82.141 201.208 82.994 200.448 83.879C200 84.399 199.66 85.022 199.236 85.566L216.667 102.846C218.46 101.575 220.346 100.348 222.352 99.194C225.934 97.133 229.181 95.478 232.169 94.103L211.087 74.622C208.29 76.535 205.548 78.692 203.07 81.108ZM219.681 69.5C218.27 70.234 216.84 71.004 215.358 71.884L236.487 92.247C238.202 91.563 239.806 90.985 241.298 90.509L219.681 69.5Z" fill="#FFEDD5"/>
<path d="M184.597 142.372C184.597 142.372 190.518 151.682 207.527 159.537C224.536 167.393 247.627 168.998 259.385 160.131L263.404 128.162C263.404 128.162 244.53 145.534 222.027 144.821C204.889 144.278 186.25 133.898 186.25 133.898L184.597 142.372Z" fill="#C4B5FD"/>
<path opacity="0.4" d="M184.597 142.372C184.597 142.372 190.518 151.682 207.527 159.537C224.536 167.393 247.627 168.998 259.385 160.131L263.404 128.162C263.404 128.162 244.53 145.534 222.027 144.821C204.889 144.278 186.25 133.898 186.25 133.898L184.597 142.372Z" fill="#8B5CF6"/>
<path d="M184.855 134.904C184.855 134.904 205.626 120.116 224.817 120.831C250.827 121.8 263.405 128.163 263.405 128.163C265.705 140.406 264.222 151 259.386 160.132C259.386 160.132 250.706 146.309 225.292 140.498C205.202 135.903 184.598 142.373 184.598 142.373L184.855 134.904Z" fill="#C4B5FD"/>
<path opacity="0.3" d="M254.823 155.086C251.492 152.061 246.205 148.151 238.417 144.816L239.341 122.093C247.842 123.22 254.077 124.844 258.082 126.117C259.141 135.572 257.346 147.974 254.823 155.086Z" fill="#FFEDD5"/>
<path d="M201.719 192.503L180.228 200.005L176.549 274.815L200.267 255.6L201.719 192.503Z" fill="#C4B5FD"/>
<path opacity="0.15" d="M201.719 192.503L180.228 200.005L176.549 274.815L200.267 255.6L201.719 192.503Z" fill="#8B5CF6"/>
<path d="M31.8443 215.268C37.0253 216.177 42.1753 216.87 47.2593 218.279C52.1793 219.643 57.0163 221.377 61.6813 223.45C71.2493 227.703 80.1043 233.423 88.1313 240.126C92.5073 243.78 96.6683 247.802 100.607 251.918C101.018 252.348 101.367 251.731 101.107 251.34C95.1563 242.395 86.7313 235.322 77.7683 229.507C69.2163 223.958 59.6973 219.449 49.8363 216.797C46.7733 215.973 43.6903 215.284 40.5593 214.772C37.6053 214.289 34.5423 213.837 31.5453 214.03C30.8623 214.075 31.3893 215.188 31.8443 215.268Z" fill="#FFEDD5"/>
<path d="M60.6064 178.643C69.4124 183.978 77.7074 190.113 84.8164 197.596C91.8424 204.992 97.7214 213.362 102.576 222.321C105.467 227.656 107.699 233.251 110.234 238.75C110.45 239.219 111.119 239.269 110.992 238.619C110.01 233.584 107.937 228.674 105.762 224.049C103.532 219.306 100.923 214.755 98.0114 210.398C92.1374 201.612 84.9284 193.714 76.6444 187.143C71.8374 183.331 66.4814 179.885 60.7774 177.587C60.0464 177.293 60.1464 178.364 60.6064 178.643Z" fill="#FFEDD5"/>
<path d="M19.5603 217.465L20.1083 213.52L17.1683 210.832C16.8523 210.543 17.0053 210.017 17.4263 209.942L21.3483 209.244L22.9963 205.617C23.1733 205.227 23.7203 205.21 23.9223 205.587L25.7983 209.101L29.7563 209.548C30.1823 209.596 30.3673 210.111 30.0703 210.42L27.3073 213.29L28.1053 217.193C28.1913 217.613 27.7583 217.948 27.3733 217.761L23.7903 216.021L20.3253 217.986C19.9543 218.196 19.5013 217.889 19.5603 217.465Z" fill="#DDD6FE"/>
<path d="M42.6853 180.354L43.4803 174.632L39.2173 170.733C38.7593 170.314 38.9803 169.551 39.5913 169.442L45.2793 168.43L47.6693 163.171C47.9263 162.606 48.7203 162.58 49.0123 163.128L51.7323 168.224L57.4723 168.872C58.0893 168.942 58.3583 169.689 57.9283 170.136L53.9223 174.298L55.0793 179.958C55.2033 180.566 54.5763 181.053 54.0183 180.782L48.8223 178.258L43.7973 181.108C43.2573 181.415 42.6003 180.969 42.6853 180.354Z" fill="#DDD6FE"/>
<path d="M291.321 228.4C286.596 228.713 281.824 230.467 277.447 232.178C272.954 233.934 268.636 236.126 264.5 238.607C256.178 243.599 248.473 249.862 242.055 257.155C238.506 261.188 235.155 265.44 233.036 270.408C232.896 270.736 233.323 271.368 233.64 270.989C236.717 267.302 239.5 263.382 242.689 259.787C245.825 256.251 249.17 252.903 252.763 249.832C259.877 243.751 267.775 238.704 276.311 234.864C278.978 233.664 281.715 232.613 284.495 231.706C286.917 230.916 289.452 230.403 291.828 229.49C292.376 229.278 291.755 228.371 291.321 228.4Z" fill="#FFEDD5"/>
<path d="M306.254 235.311L306.482 230.407L310.651 227.815C311.099 227.536 311.033 226.865 310.539 226.678L305.945 224.946L304.768 220.179C304.642 219.667 303.982 219.522 303.653 219.934L300.586 223.768L295.689 223.414C295.163 223.376 294.821 223.958 295.111 224.399L297.809 228.501L295.96 233.049C295.761 233.538 296.209 234.042 296.718 233.903L301.453 232.604L305.207 235.768C305.611 236.109 306.23 235.839 306.254 235.311Z" fill="#DDD6FE"/>
<path d="M68.3834 243.241C68.2834 242.268 68.0084 241.33 67.5674 240.582C66.2854 238.41 63.7394 237.283 61.2754 237.321C58.5724 237.363 56.0894 238.972 54.4544 241.044C54.1334 241.45 53.8154 241.906 53.5244 242.391C52.7394 242.255 51.9194 242.28 51.1264 242.506C49.6114 242.938 48.3144 243.958 47.5764 245.355C46.8214 246.785 46.7904 248.377 47.0704 249.934C47.1184 250.199 47.4754 250.3 47.4334 249.963C47.1814 247.941 48.0654 245.611 49.6644 244.333C50.6314 243.561 51.8684 243.166 53.0534 243.254C52.1864 245.042 51.8414 247.093 53.1294 248.731C53.9274 249.746 55.4374 250.321 56.6314 249.641C57.6844 249.041 57.9914 247.657 57.8134 246.54C57.5284 244.76 56.3064 243.416 54.7654 242.756C56.7944 239.437 61.0854 236.976 64.7674 239.318C66.0824 240.154 66.8204 241.458 67.0484 242.908C64.8284 242.65 62.0164 243.633 61.8004 246.148C61.5764 248.769 64.9774 249.492 66.7034 248.15C67.7934 247.302 68.3224 245.91 68.4154 244.463C70.1134 245.399 71.0744 247.394 71.0594 249.372C71.0584 249.55 71.3964 249.908 71.5054 249.618C72.5154 246.949 70.8954 244.223 68.3834 243.241ZM56.6674 246.983C56.6854 247.972 56.0774 249.309 54.8754 248.782C53.8564 248.335 53.4914 247.028 53.5604 246.01C53.6184 245.15 53.9194 244.327 54.3134 243.559C54.7314 243.738 55.1304 243.982 55.4804 244.328C56.1854 245.022 56.6504 245.987 56.6674 246.983ZM67.0914 244.626C66.9844 245.623 66.6444 246.708 65.8204 247.347C65.2294 247.805 64.2984 247.956 63.6444 247.536C62.6204 246.879 63.1354 245.534 63.8284 244.848C64.6584 244.027 65.8654 243.787 66.9934 243.96C67.0394 243.967 67.0784 243.986 67.1244 243.995C67.1204 244.204 67.1144 244.414 67.0914 244.626Z" fill="#C4B5FD"/>
<path opacity="0.5" d="M68.3834 243.241C68.2834 242.268 68.0084 241.33 67.5674 240.582C66.2854 238.41 63.7394 237.283 61.2754 237.321C58.5724 237.363 56.0894 238.972 54.4544 241.044C54.1334 241.45 53.8154 241.906 53.5244 242.391C52.7394 242.255 51.9194 242.28 51.1264 242.506C49.6114 242.938 48.3144 243.958 47.5764 245.355C46.8214 246.785 46.7904 248.377 47.0704 249.934C47.1184 250.199 47.4754 250.3 47.4334 249.963C47.1814 247.941 48.0654 245.611 49.6644 244.333C50.6314 243.561 51.8684 243.166 53.0534 243.254C52.1864 245.042 51.8414 247.093 53.1294 248.731C53.9274 249.746 55.4374 250.321 56.6314 249.641C57.6844 249.041 57.9914 247.657 57.8134 246.54C57.5284 244.76 56.3064 243.416 54.7654 242.756C56.7944 239.437 61.0854 236.976 64.7674 239.318C66.0824 240.154 66.8204 241.458 67.0484 242.908C64.8284 242.65 62.0164 243.633 61.8004 246.148C61.5764 248.769 64.9774 249.492 66.7034 248.15C67.7934 247.302 68.3224 245.91 68.4154 244.463C70.1134 245.399 71.0744 247.394 71.0594 249.372C71.0584 249.55 71.3964 249.908 71.5054 249.618C72.5154 246.949 70.8954 244.223 68.3834 243.241ZM56.6674 246.983C56.6854 247.972 56.0774 249.309 54.8754 248.782C53.8564 248.335 53.4914 247.028 53.5604 246.01C53.6184 245.15 53.9194 244.327 54.3134 243.559C54.7314 243.738 55.1304 243.982 55.4804 244.328C56.1854 245.022 56.6504 245.987 56.6674 246.983ZM67.0914 244.626C66.9844 245.623 66.6444 246.708 65.8204 247.347C65.2294 247.805 64.2984 247.956 63.6444 247.536C62.6204 246.879 63.1354 245.534 63.8284 244.848C64.6584 244.027 65.8654 243.787 66.9934 243.96C67.0394 243.967 67.0784 243.986 67.1244 243.995C67.1204 244.204 67.1144 244.414 67.0914 244.626Z" fill="#FFEDD5"/>
<path d="M257.533 234.532C257.837 234.657 257.804 234.135 257.665 234.007C256.119 232.586 255.266 230.395 255.769 228.398C256.96 229.374 258.424 229.971 259.872 229.739C262.165 229.371 264.067 226.207 261.869 224.482C259.76 222.828 256.96 224.299 255.552 226.21C254.591 224.983 254.114 223.465 254.417 221.839C255.266 217.285 260.285 215.735 264.331 216.564C263.727 218.239 263.885 220.162 265.061 221.672C265.799 222.619 267.096 223.383 268.325 223.001C269.717 222.567 270.365 220.978 270.155 219.623C269.816 217.436 267.973 216.218 265.957 215.596C266.747 214.612 267.95 213.937 269.25 213.746C271.4 213.43 273.85 214.431 275.237 216.091C275.469 216.368 275.649 216.017 275.478 215.789C274.471 214.443 273.213 213.314 271.555 212.865C269.936 212.426 268.205 212.695 266.772 213.558C266.022 214.01 265.408 214.628 264.946 215.336C264.358 215.211 263.774 215.128 263.227 215.082C260.434 214.85 257.387 215.614 255.396 217.682C253.581 219.567 252.612 222.361 253.37 224.929C253.631 225.813 254.161 226.706 254.843 227.488C253.784 230.148 254.727 233.38 257.533 234.532ZM265.03 218.255C265.015 217.732 265.115 217.246 265.278 216.792C266.159 217.042 267.016 217.405 267.726 217.983C268.566 218.667 269.317 219.897 268.926 221.012C268.465 222.326 266.986 221.83 266.231 221.1C265.472 220.365 265.059 219.305 265.03 218.255ZM256.339 227.054C256.365 227.013 256.379 226.968 256.407 226.927C257.09 225.926 258.15 225.163 259.389 225.113C260.423 225.071 261.841 225.646 261.609 226.917C261.461 227.73 260.67 228.343 259.886 228.47C258.793 228.647 257.704 228.125 256.853 227.486C256.671 227.351 256.504 227.203 256.339 227.054Z" fill="#C4B5FD"/>
<path opacity="0.5" d="M257.533 234.532C257.837 234.657 257.804 234.135 257.665 234.007C256.119 232.586 255.266 230.395 255.769 228.398C256.96 229.374 258.424 229.971 259.872 229.739C262.165 229.371 264.067 226.207 261.869 224.482C259.76 222.828 256.96 224.299 255.552 226.21C254.591 224.983 254.114 223.465 254.417 221.839C255.266 217.285 260.285 215.735 264.331 216.564C263.727 218.239 263.885 220.162 265.061 221.672C265.799 222.619 267.096 223.383 268.325 223.001C269.717 222.567 270.365 220.978 270.155 219.623C269.816 217.436 267.973 216.218 265.957 215.596C266.747 214.612 267.95 213.937 269.25 213.746C271.4 213.43 273.85 214.431 275.237 216.091C275.469 216.368 275.649 216.017 275.478 215.789C274.471 214.443 273.213 213.314 271.555 212.865C269.936 212.426 268.205 212.695 266.772 213.558C266.022 214.01 265.408 214.628 264.946 215.336C264.358 215.211 263.774 215.128 263.227 215.082C260.434 214.85 257.387 215.614 255.396 217.682C253.581 219.567 252.612 222.361 253.37 224.929C253.631 225.813 254.161 226.706 254.843 227.488C253.784 230.148 254.727 233.38 257.533 234.532ZM265.03 218.255C265.015 217.732 265.115 217.246 265.278 216.792C266.159 217.042 267.016 217.405 267.726 217.983C268.566 218.667 269.317 219.897 268.926 221.012C268.465 222.326 266.986 221.83 266.231 221.1C265.472 220.365 265.059 219.305 265.03 218.255ZM256.339 227.054C256.365 227.013 256.379 226.968 256.407 226.927C257.09 225.926 258.15 225.163 259.389 225.113C260.423 225.071 261.841 225.646 261.609 226.917C261.461 227.73 260.67 228.343 259.886 228.47C258.793 228.647 257.704 228.125 256.853 227.486C256.671 227.351 256.504 227.203 256.339 227.054Z" fill="#FFEDD5"/>
<path d="M91.7182 222.966C92.5152 222.399 93.1962 221.697 93.6292 220.945C94.8862 218.759 94.6123 215.988 93.3633 213.864C91.9933 211.533 89.3692 210.166 86.7612 209.766C86.2492 209.688 85.6962 209.635 85.1302 209.621C84.8612 208.871 84.4352 208.17 83.8472 207.592C82.7242 206.487 81.1972 205.862 79.6182 205.909C78.0022 205.957 76.6022 206.715 75.3842 207.727C75.1772 207.899 75.2652 208.26 75.5382 208.057C77.1722 206.841 79.6352 206.46 81.5352 207.221C82.6842 207.681 83.6382 208.563 84.1452 209.638C82.1622 209.765 80.2083 210.477 79.4183 212.406C78.9283 213.601 79.1732 215.198 80.3532 215.901C81.3942 216.521 82.7502 216.105 83.6332 215.4C85.0412 214.275 85.6082 212.548 85.4212 210.882C89.3092 211.01 93.5662 213.53 93.3452 217.887C93.2662 219.443 92.4962 220.728 91.3472 221.642C90.4762 219.584 88.2342 217.622 85.9402 218.675C83.5492 219.773 84.5972 223.088 86.6172 223.928C87.8922 224.458 89.3643 224.232 90.6683 223.599C90.6913 225.538 89.4302 227.357 87.7022 228.32C87.5462 228.407 87.4022 228.878 87.7082 228.83C90.5302 228.389 92.1022 225.635 91.7182 222.966ZM82.6852 214.619C81.8342 215.122 80.3712 215.252 80.2362 213.947C80.1222 212.84 81.0802 211.878 81.9992 211.436C82.7762 211.063 83.6413 210.918 84.5033 210.882C84.5533 211.334 84.5382 211.801 84.4102 212.277C84.1532 213.232 83.5432 214.113 82.6852 214.619ZM89.8763 222.525C88.9563 222.923 87.8442 223.163 86.8822 222.761C86.1922 222.473 85.6022 221.738 85.6442 220.961C85.7112 219.746 87.1352 219.531 88.0732 219.796C89.1972 220.113 90.0012 221.045 90.4072 222.111C90.4232 222.155 90.4262 222.198 90.4412 222.242C90.2572 222.342 90.0713 222.44 89.8763 222.525Z" fill="#C4B5FD"/>
<path opacity="0.5" d="M91.7182 222.966C92.5152 222.399 93.1962 221.697 93.6292 220.945C94.8862 218.759 94.6123 215.988 93.3633 213.864C91.9933 211.533 89.3692 210.166 86.7612 209.766C86.2492 209.688 85.6962 209.635 85.1302 209.621C84.8612 208.871 84.4352 208.17 83.8472 207.592C82.7242 206.487 81.1972 205.862 79.6182 205.909C78.0022 205.957 76.6022 206.715 75.3842 207.727C75.1772 207.899 75.2652 208.26 75.5382 208.057C77.1722 206.841 79.6352 206.46 81.5352 207.221C82.6842 207.681 83.6382 208.563 84.1452 209.638C82.1622 209.765 80.2083 210.477 79.4183 212.406C78.9283 213.601 79.1732 215.198 80.3532 215.901C81.3942 216.521 82.7502 216.105 83.6332 215.4C85.0412 214.275 85.6082 212.548 85.4212 210.882C89.3092 211.01 93.5662 213.53 93.3452 217.887C93.2662 219.443 92.4962 220.728 91.3472 221.642C90.4762 219.584 88.2342 217.622 85.9402 218.675C83.5492 219.773 84.5972 223.088 86.6172 223.928C87.8922 224.458 89.3643 224.232 90.6683 223.599C90.6913 225.538 89.4302 227.357 87.7022 228.32C87.5462 228.407 87.4022 228.878 87.7082 228.83C90.5302 228.389 92.1022 225.635 91.7182 222.966ZM82.6852 214.619C81.8342 215.122 80.3712 215.252 80.2362 213.947C80.1222 212.84 81.0802 211.878 81.9992 211.436C82.7762 211.063 83.6413 210.918 84.5033 210.882C84.5533 211.334 84.5382 211.801 84.4102 212.277C84.1532 213.232 83.5432 214.113 82.6852 214.619ZM89.8763 222.525C88.9563 222.923 87.8442 223.163 86.8822 222.761C86.1922 222.473 85.6022 221.738 85.6442 220.961C85.7112 219.746 87.1352 219.531 88.0732 219.796C89.1972 220.113 90.0012 221.045 90.4072 222.111C90.4232 222.155 90.4262 222.198 90.4412 222.242C90.2572 222.342 90.0713 222.44 89.8763 222.525Z" fill="#FFEDD5"/>
</svg>
