<svg width="436" height="432" viewBox="0 0 436 432" fill="none" xmlns="http://www.w3.org/2000/svg">
<path d="M212.5 25C163.3 25 120 81.3333 104.5 109.5C81.3334 136.167 37.1001 207.2 45.5001 278C53.9001 348.8 160.333 366.167 212.5 366C257 370.167 346.1 355.4 346.5 263C347 147.5 274 25 212.5 25Z" fill="#FAD6BD"/>
<path d="M83.5011 203.348C83.5011 203.348 68.5011 204.178 64.3611 211.048C60.2211 217.918 65.6111 224.988 73.5111 227.908C81.4111 230.828 84.1311 229.568 85.1711 227.698C86.2111 225.828 83.5011 203.348 83.5011 203.348Z" fill="white" stroke="#263238" stroke-linecap="round" stroke-linejoin="round"/>
<path d="M372.231 246.248C372.231 246.248 364.231 246.648 338.121 225.778C312.011 204.908 310.421 192.868 271.891 172.778C233.361 152.688 214.891 150.708 213.691 155.118C212.491 159.528 213.291 344.568 218.111 348.578C222.931 352.588 254.231 350.578 278.711 346.578C303.191 342.578 329.711 345.378 338.921 348.578C348.131 351.778 375.421 360.248 375.421 360.248" fill="white"/>
<mask id="mask0_1437_1616" style="mask-type:luminance" maskUnits="userSpaceOnUse" x="213" y="153" width="163" height="208">
<path d="M372.231 246.248C372.231 246.248 364.231 246.648 338.121 225.778C312.011 204.908 310.421 192.868 271.891 172.778C233.361 152.688 214.891 150.708 213.691 155.118C212.491 159.528 213.291 344.568 218.111 348.578C222.931 352.588 254.231 350.578 278.711 346.578C303.191 342.578 329.711 345.378 338.921 348.578C348.131 351.778 375.421 360.248 375.421 360.248" fill="white"/>
</mask>
<g mask="url(#mask0_1437_1616)">
<path d="M261.701 339.248C255.191 334.248 250.701 314.178 257.191 304.158C263.681 294.138 272.191 297.638 279.251 297.638C286.311 297.638 269.251 289.118 262.251 277.078C255.251 265.038 285.821 200.378 281.811 184.328C280.878 181.158 279.321 178.207 277.231 175.648C275.541 174.718 273.781 173.768 271.921 172.798C233.391 152.728 214.921 150.728 213.721 155.138C212.521 159.548 213.321 344.588 218.141 348.598C222.961 352.608 254.261 350.598 278.741 346.598C281.431 346.158 284.131 345.808 286.841 345.528C276.471 343.968 265.051 341.788 261.701 339.248Z" fill="#F97316"/>
<path opacity="0.5" d="M261.701 339.248C255.191 334.248 250.701 314.178 257.191 304.158C263.681 294.138 272.191 297.638 279.251 297.638C286.311 297.638 269.251 289.118 262.251 277.078C255.251 265.038 285.821 200.378 281.811 184.328C280.878 181.158 279.321 178.207 277.231 175.648C275.541 174.718 273.781 173.768 271.921 172.798C233.391 152.728 214.921 150.728 213.721 155.138C212.521 159.548 213.321 344.588 218.141 348.598C222.961 352.608 254.261 350.598 278.741 346.598C281.431 346.158 284.131 345.808 286.841 345.528C276.471 343.968 265.051 341.788 261.701 339.248Z" fill="white"/>
</g>
<path d="M372.231 246.248C372.231 246.248 364.231 246.648 338.121 225.778C312.011 204.908 310.421 192.868 271.891 172.778C233.361 152.688 214.891 150.708 213.691 155.118C212.491 159.528 213.291 344.568 218.111 348.578C222.931 352.588 254.231 350.578 278.711 346.578C303.191 342.578 329.711 345.378 338.921 348.578C348.131 351.778 375.421 360.248 375.421 360.248" stroke="#263238" stroke-linecap="round" stroke-linejoin="round"/>
<path d="M78.931 123.008C78.931 123.008 66.651 120.098 61.241 129.878C55.831 139.658 69.351 151.108 77.891 153.818L78.931 123.008Z" fill="#F97316" stroke="#263238" stroke-linecap="round" stroke-linejoin="round"/>
<path d="M86.001 123.428C85.911 121.288 79.4609 122.528 78.3209 122.688C75.3324 123.082 72.5574 124.451 70.4258 126.583C68.2943 128.714 66.9253 131.489 66.531 134.478C65.361 143.478 73.911 153.368 82.421 155.478L87.2409 156.688C87.2409 156.688 86.001 123.458 86.001 123.428Z" fill="white" stroke="#263238" stroke-linecap="round" stroke-linejoin="round"/>
<path d="M75.2311 248.928C75.2311 248.928 64.9011 249.338 62.7811 258.248C60.6611 267.158 73.8611 273.248 81.1911 273.468L75.2311 248.928Z" fill="#F97316" stroke="#263238" stroke-linecap="round" stroke-linejoin="round"/>
<path d="M83.921 246.637C83.381 244.967 75.551 248.427 74.681 248.807C72.4105 249.777 70.5233 251.469 69.312 253.621C68.1007 255.772 67.6329 258.263 67.981 260.707C69.041 268.087 77.981 273.987 85.141 273.797L89.211 273.687C89.211 273.687 83.931 246.657 83.921 246.637Z" fill="white" stroke="#263238" stroke-linecap="round" stroke-linejoin="round"/>
<path d="M83.5011 166.718C83.5011 166.718 68.5011 167.548 64.3611 174.418C60.2211 181.288 65.6111 188.358 73.5111 191.278C81.4111 194.198 84.1311 192.938 85.1711 191.068C86.2111 189.198 83.5011 166.718 83.5011 166.718Z" fill="white" stroke="#263238" stroke-linecap="round" stroke-linejoin="round"/>
<path d="M76.231 213.338C76.231 213.338 81.851 226.238 81.431 236.648C81.011 247.058 69.151 250.168 64.781 248.298C60.411 246.428 58.541 223.948 61.451 216.458C64.361 208.968 69.991 208.338 69.991 208.338" fill="white"/>
<path d="M76.231 213.338C76.231 213.338 81.851 226.238 81.431 236.648C81.011 247.058 69.151 250.168 64.781 248.298C60.411 246.428 58.541 223.948 61.451 216.458C64.361 208.968 69.991 208.338 69.991 208.338" stroke="#263238" stroke-linecap="round" stroke-linejoin="round"/>
<path d="M61.861 225.618C61.861 225.618 60.231 238.728 60.231 244.348C60.231 249.968 61.471 248.718 64.391 241.848C67.311 234.978 67.481 219.578 61.861 225.618Z" fill="#F97316" stroke="#263238" stroke-linecap="round" stroke-linejoin="round"/>
<path d="M76.231 176.708C76.231 176.708 81.851 189.608 81.431 200.018C81.011 210.428 69.151 213.548 64.781 211.668C60.411 209.788 58.541 187.318 61.451 179.828C64.361 172.338 69.991 171.708 69.991 171.708" fill="white"/>
<path d="M76.231 176.708C76.231 176.708 81.851 189.608 81.431 200.018C81.011 210.428 69.151 213.548 64.781 211.668C60.411 209.788 58.541 187.318 61.451 179.828C64.361 172.338 69.991 171.708 69.991 171.708" stroke="#263238" stroke-linecap="round" stroke-linejoin="round"/>
<path d="M61.861 188.988C61.861 188.988 60.231 202.098 60.231 207.718C60.231 213.338 61.471 212.088 64.391 205.218C67.311 198.348 67.481 182.948 61.861 188.988Z" fill="#F97316" stroke="#263238" stroke-linecap="round" stroke-linejoin="round"/>
<path d="M314.421 342.938C311.945 333.919 310.727 324.601 310.801 315.248" stroke="#263238" stroke-linecap="round" stroke-linejoin="round"/>
<path d="M318.431 308.018C318.431 308.018 318.031 325.278 320.431 331.298" stroke="#263238" stroke-linecap="round" stroke-linejoin="round"/>
<path d="M265.851 292.367C265.851 292.367 282.311 303.607 301.971 303.607" stroke="#263238" stroke-linecap="round" stroke-linejoin="round"/>
<path d="M344.771 231.357C344.771 231.357 336.771 225.737 327.111 210.087C317.451 194.437 294.231 160.717 290.231 143.857C286.231 126.997 285.821 121.387 283.411 111.747C281.001 102.107 274.981 97.2972 276.191 85.2572C277.401 73.2172 273.781 67.1973 268.191 66.3973C262.601 65.5973 254.141 64.7873 249.731 85.6573C245.321 106.527 253.341 135.827 256.151 149.477C258.961 163.127 258.961 175.167 253.341 189.617C247.721 204.067 241.701 223.327 247.341 251.827C252.981 280.327 271.021 288.757 285.071 294.777" fill="white"/>
<mask id="mask1_1437_1616" style="mask-type:luminance" maskUnits="userSpaceOnUse" x="245" y="66" width="100" height="229">
<path d="M344.771 231.357C344.771 231.357 336.771 225.737 327.111 210.087C317.451 194.437 294.231 160.717 290.231 143.857C286.231 126.997 285.821 121.387 283.411 111.747C281.001 102.107 274.981 97.2972 276.191 85.2572C277.401 73.2172 273.781 67.1973 268.191 66.3973C262.601 65.5973 254.141 64.7873 249.731 85.6573C245.321 106.527 253.341 135.827 256.151 149.477C258.961 163.127 258.961 175.167 253.341 189.617C247.721 204.067 241.701 223.327 247.341 251.827C252.981 280.327 271.021 288.757 285.071 294.777" fill="white"/>
</mask>
<g mask="url(#mask1_1437_1616)">
<path d="M266.011 159.667C264.121 136.547 256.571 114.357 254.681 97.3675C253.211 84.0975 258.071 71.6975 260.271 66.8975C256.271 68.5675 252.271 73.3275 249.651 85.6575C245.231 106.527 253.261 135.827 256.071 149.477C258.881 163.127 258.881 175.167 253.261 189.617C247.641 204.067 241.621 223.327 247.261 251.827C248.561 259.037 251.193 265.941 255.021 272.187C241.901 232.097 267.851 182.247 266.011 159.667Z" fill="#F97316"/>
<path opacity="0.5" d="M266.011 159.667C264.121 136.547 256.571 114.357 254.681 97.3675C253.211 84.0975 258.071 71.6975 260.271 66.8975C256.271 68.5675 252.271 73.3275 249.651 85.6575C245.231 106.527 253.261 135.827 256.071 149.477C258.881 163.127 258.881 175.167 253.261 189.617C247.641 204.067 241.621 223.327 247.261 251.827C248.561 259.037 251.193 265.941 255.021 272.187C241.901 232.097 267.851 182.247 266.011 159.667Z" fill="white"/>
</g>
<path d="M344.771 231.357C344.771 231.357 336.771 225.737 327.111 210.087C317.451 194.437 294.231 160.717 290.231 143.857C286.231 126.997 285.821 121.387 283.411 111.747C281.001 102.107 274.981 97.2972 276.191 85.2572C277.401 73.2172 273.781 67.1973 268.191 66.3973C262.601 65.5973 254.141 64.7873 249.731 85.6573C245.321 106.527 253.341 135.827 256.151 149.477C258.961 163.127 258.961 175.167 253.341 189.617C247.721 204.067 241.701 223.327 247.341 251.827C252.981 280.327 271.021 288.757 285.071 294.777" stroke="#263238" stroke-linecap="round" stroke-linejoin="round"/>
<path d="M281.001 111.837C281.001 111.837 278.081 108.197 270.071 112.567" stroke="#263238" stroke-linecap="round" stroke-linejoin="round"/>
<path d="M270.801 116.568C270.801 116.568 276.631 112.928 281.361 116.208" stroke="#263238" stroke-linecap="round" stroke-linejoin="round"/>
<path d="M283.231 119.848C280.691 120.127 278.136 120.247 275.581 120.208" stroke="#263238" stroke-linecap="round" stroke-linejoin="round"/>
<path d="M275.611 93.4177L273.111 92.9577C270.531 92.4715 268.208 91.0823 266.559 89.0392C264.91 86.9961 264.042 84.4324 264.111 81.8077C264.178 79.3745 264.412 76.9488 264.811 74.5477C266.411 64.9177 266.811 61.3077 270.811 62.1077C274.811 62.9077 277.231 64.1077 277.231 69.3377C277.231 74.5677 275.611 93.4177 275.611 93.4177Z" fill="#F97316" stroke="#263238" stroke-linecap="round" stroke-linejoin="round"/>
<path d="M242.461 68.3174H88.061C84.3331 68.3174 81.311 71.3395 81.311 75.0674V364.157C81.311 367.885 84.3331 370.907 88.061 370.907H242.461C246.189 370.907 249.211 367.885 249.211 364.157V75.0674C249.211 71.3395 246.189 68.3174 242.461 68.3174Z" fill="#F97316" stroke="#263238" stroke-linecap="round" stroke-linejoin="round"/>
<path d="M242.461 62.6475H88.061C84.3331 62.6475 81.311 65.6695 81.311 69.3975V358.487C81.311 362.215 84.3331 365.237 88.061 365.237H242.461C246.189 365.237 249.211 362.215 249.211 358.487V69.3975C249.211 65.6695 246.189 62.6475 242.461 62.6475Z" fill="#263238" stroke="#263238" stroke-miterlimit="10"/>
<path d="M176.871 80.7275H155.971C155.689 80.7275 155.409 80.6719 155.148 80.5639C154.887 80.4558 154.65 80.2974 154.451 80.0978C154.251 79.8982 154.093 79.6611 153.985 79.4003C153.877 79.1394 153.821 78.8599 153.821 78.5775C153.821 78.2957 153.877 78.0166 153.985 77.7563C154.093 77.496 154.252 77.2596 154.451 77.0608C154.651 76.8619 154.888 76.7045 155.149 76.5975C155.41 76.4906 155.689 76.4362 155.971 76.4375H176.871C177.439 76.4375 177.983 76.663 178.384 77.0643C178.786 77.4656 179.011 78.01 179.011 78.5775C179.012 78.8594 178.958 79.1387 178.851 79.3995C178.744 79.6603 178.587 79.8974 178.388 80.0972C178.189 80.297 177.953 80.4555 177.692 80.5637C177.432 80.6718 177.153 80.7275 176.871 80.7275Z" fill="white"/>
<path d="M238.601 338.248H91.9209V80.9678H126.691L130.601 84.2178C131.967 85.3506 133.686 85.9697 135.461 85.9678H196.801C198.641 85.9613 200.417 85.2901 201.801 84.0778L205.331 80.9678H238.571L238.601 338.248Z" fill="#F97316" stroke="#263238" stroke-linecap="round" stroke-linejoin="round"/>
<path d="M165.261 220.097C188.429 220.097 207.211 201.316 207.211 178.147C207.211 154.979 188.429 136.197 165.261 136.197C142.093 136.197 123.311 154.979 123.311 178.147C123.311 201.316 142.093 220.097 165.261 220.097Z" fill="white"/>
<mask id="mask2_1437_1616" style="mask-type:luminance" maskUnits="userSpaceOnUse" x="123" y="136" width="85" height="85">
<path d="M165.261 220.097C188.429 220.097 207.211 201.316 207.211 178.147C207.211 154.979 188.429 136.197 165.261 136.197C142.093 136.197 123.311 154.979 123.311 178.147C123.311 201.316 142.093 220.097 165.261 220.097Z" fill="white"/>
</mask>
<g mask="url(#mask2_1437_1616)">
<path d="M160.471 136.247C160.471 136.247 156.141 134.517 145.541 139.707C134.941 144.897 129.321 152.257 133.861 158.707C138.401 165.157 145.761 165.197 149.861 170.827C153.961 176.457 148.071 182.607 143.531 192.127C138.991 201.647 146.951 207.217 153.661 209.377C160.371 211.537 160.891 204.137 168.461 191.587C176.031 179.037 164.781 157.587 161.321 149.587C157.861 141.587 160.471 136.247 160.471 136.247Z" fill="#263238" stroke="#263238" stroke-linecap="round" stroke-linejoin="round"/>
<path d="M154.081 151.517C154.081 151.517 146.741 152.217 144.991 155.017C143.241 157.817 147.791 158.157 147.791 158.157" stroke="white" stroke-linecap="round" stroke-linejoin="round"/>
<path d="M154.081 145.577C154.081 145.577 137.311 151.867 136.961 156.417C136.611 160.967 145.341 161.307 145.341 161.307" stroke="white" stroke-linecap="round" stroke-linejoin="round"/>
<path d="M160.031 192.067C160.031 192.067 151.141 203.507 146.161 207.177C141.181 210.847 139.821 215.837 142.411 218.437C145.001 221.037 143.811 221.267 159.601 222.567C175.391 223.867 183.831 220.837 189.021 215.867C194.211 210.897 196.801 206.777 196.801 202.667C196.801 198.557 178.631 188.827 172.361 188.827C166.091 188.827 160.031 192.067 160.031 192.067Z" fill="white" stroke="#263238" stroke-linecap="round" stroke-linejoin="round"/>
<path d="M161.331 201.587L153.111 211.757C153.111 211.757 156.571 214.347 157.221 213.267C157.871 212.187 160.901 206.567 160.901 206.567" stroke="#263238" stroke-linecap="round" stroke-linejoin="round"/>
<path d="M166.311 186.667C166.311 186.667 160.471 188.827 159.381 190.337C158.291 191.847 148.381 198.997 151.171 199.207C153.961 199.417 159.601 194.667 159.601 194.667C159.601 194.667 160.031 201.587 161.331 201.587C162.631 201.587 171.711 197.907 171.711 197.907C171.711 197.907 175.171 206.997 177.341 204.617C179.511 202.237 181.451 189.047 179.931 185.797C178.411 182.547 166.311 186.667 166.311 186.667Z" fill="#F97316" stroke="#263238" stroke-linecap="round" stroke-linejoin="round"/>
<path d="M163.491 181.247V193.147C163.491 196.817 161.981 198.767 164.361 198.147C166.741 197.527 172.151 192.737 175.361 187.767C178.571 182.797 177.091 175.217 175.791 169.817C174.491 164.417 171.251 168.297 169.301 170.677C167.351 173.057 163.491 181.247 163.491 181.247Z" fill="white" stroke="#263238" stroke-linecap="round" stroke-linejoin="round"/>
<path d="M155.231 150.757L146.581 161.137C146.581 161.137 148.101 172.137 150.691 176.277C153.281 180.417 159.561 185.577 162.371 184.717C165.181 183.857 173.371 171.717 173.841 170.227C174.898 167.019 174.665 163.526 173.191 160.487C171.061 155.737 155.231 150.757 155.231 150.757Z" fill="white" stroke="#263238" stroke-linecap="round" stroke-linejoin="round"/>
<path d="M154.411 163.517C154.411 163.517 155.711 167.197 155.061 168.707C154.411 170.217 152.251 171.087 153.061 172.167C153.359 172.491 153.731 172.74 154.145 172.891C154.559 173.042 155.004 173.092 155.441 173.037" stroke="#263238" stroke-linecap="round" stroke-linejoin="round"/>
<path d="M155.061 176.497C155.061 176.497 159.821 177.367 160.681 174.547" stroke="#263238" stroke-linecap="round" stroke-linejoin="round"/>
<path d="M161.671 165.747C161.671 166.497 161.301 167.097 160.861 167.097C160.421 167.097 160.051 166.497 160.051 165.747C160.051 164.997 160.411 164.407 160.861 164.407C161.311 164.407 161.671 165.007 161.671 165.747Z" fill="#263238"/>
<path d="M154.231 166.797C154.231 167.547 153.871 168.147 153.421 168.147C152.971 168.147 152.611 167.547 152.611 166.797C152.611 166.047 152.971 165.457 153.421 165.457C153.871 165.457 154.231 166.057 154.231 166.797Z" fill="#263238"/>
<path d="M149.231 164.247C149.231 164.247 149.831 161.457 151.721 161.457C153.611 161.457 153.921 162.057 153.921 162.057" stroke="#263238" stroke-linecap="round" stroke-linejoin="round"/>
<path d="M157.121 161.317C157.267 160.557 157.702 159.883 158.334 159.435C158.965 158.988 159.746 158.802 160.511 158.917C163.301 159.317 163.401 160.917 163.401 160.917" stroke="#263238" stroke-linecap="round" stroke-linejoin="round"/>
<path d="M152.901 145.997C152.901 145.997 153.981 157.247 164.141 163.087C174.301 168.927 179.071 176.277 175.821 185.367C172.571 194.457 168.901 202.457 177.551 208.077C186.201 213.697 196.151 211.537 203.081 202.237C210.011 192.937 210.801 179.237 203.441 167.307C196.081 155.377 193.691 150.157 188.941 143.027C184.191 135.897 169.941 134.757 162.411 135.397C160.324 135.496 158.307 136.177 156.588 137.362C154.868 138.548 153.515 140.192 152.681 142.107" fill="#263238"/>
<path d="M152.901 145.997C152.901 145.997 153.981 157.247 164.141 163.087C174.301 168.927 179.071 176.277 175.821 185.367C172.571 194.457 168.901 202.457 177.551 208.077C186.201 213.697 196.151 211.537 203.081 202.237C210.011 192.937 210.801 179.237 203.441 167.307C196.081 155.377 193.691 150.157 188.941 143.027C184.191 135.897 169.941 134.757 162.411 135.397C160.324 135.496 158.307 136.177 156.588 137.362C154.868 138.548 153.515 140.192 152.681 142.107" stroke="#263238" stroke-linecap="round" stroke-linejoin="round"/>
<path d="M156.881 148.027C156.881 148.027 153.731 157.117 168.761 162.707C183.791 168.297 200.911 168.647 201.961 181.577" stroke="white" stroke-linecap="round" stroke-linejoin="round"/>
<path d="M180.421 203.957C180.793 204.766 181.348 205.478 182.041 206.037" stroke="white" stroke-linecap="round" stroke-linejoin="round"/>
<path d="M167.711 162.356C167.711 162.356 181.341 170.356 182.711 180.526C183.631 187.176 180.481 193.976 179.891 199.256" stroke="white" stroke-linecap="round" stroke-linejoin="round"/>
<path d="M158.231 140.767C153.411 144.967 154.091 151.517 154.091 151.517" stroke="white" stroke-linecap="round" stroke-linejoin="round"/>
<path d="M162.821 138.247C162.071 138.488 161.342 138.789 160.641 139.147" stroke="white" stroke-linecap="round" stroke-linejoin="round"/>
</g>
<path d="M165.261 220.097C188.429 220.097 207.211 201.316 207.211 178.147C207.211 154.979 188.429 136.197 165.261 136.197C142.093 136.197 123.311 154.979 123.311 178.147C123.311 201.316 142.093 220.097 165.261 220.097Z" stroke="#263238" stroke-miterlimit="10"/>
<path d="M198.531 235.588H131.981C128.358 235.588 125.421 238.525 125.421 242.148V247.288C125.421 250.911 128.358 253.848 131.981 253.848H198.531C202.154 253.848 205.091 250.911 205.091 247.288V242.148C205.091 238.525 202.154 235.588 198.531 235.588Z" fill="white" stroke="#263238" stroke-linecap="round" stroke-linejoin="round"/>
<path d="M198.531 265.888H131.981C128.358 265.888 125.421 268.825 125.421 272.448V277.588C125.421 281.211 128.358 284.148 131.981 284.148H198.531C202.154 284.148 205.091 281.211 205.091 277.588V272.448C205.091 268.825 202.154 265.888 198.531 265.888Z" fill="white" stroke="#263238" stroke-linecap="round" stroke-linejoin="round"/>
<path d="M198.11 296.188H131.56C127.937 296.188 125 299.125 125 302.747V307.888C125 311.51 127.937 314.448 131.56 314.448H198.11C201.733 314.448 204.67 311.51 204.67 307.888V302.747C204.67 299.125 201.733 296.188 198.11 296.188Z" fill="#263238"/>
<path d="M148.704 309.168C148.456 309.168 148.264 309.1 148.128 308.964C147.992 308.82 147.924 308.624 147.924 308.376V301.452C147.924 301.196 147.988 301.004 148.116 300.876C148.252 300.74 148.444 300.672 148.692 300.672C148.94 300.672 149.128 300.74 149.256 300.876C149.392 301.004 149.46 301.196 149.46 301.452V307.86H152.94C153.156 307.86 153.32 307.916 153.432 308.028C153.552 308.14 153.612 308.3 153.612 308.508C153.612 308.716 153.552 308.88 153.432 309C153.32 309.112 153.156 309.168 152.94 309.168H148.704ZM157.997 309.288C157.181 309.288 156.465 309.108 155.849 308.748C155.241 308.388 154.769 307.884 154.433 307.236C154.097 306.58 153.929 305.812 153.929 304.932C153.929 304.268 154.025 303.672 154.217 303.144C154.409 302.608 154.681 302.152 155.033 301.776C155.393 301.392 155.821 301.1 156.317 300.9C156.821 300.692 157.381 300.588 157.997 300.588C158.821 300.588 159.537 300.768 160.145 301.128C160.753 301.48 161.225 301.98 161.561 302.628C161.897 303.276 162.065 304.04 162.065 304.92C162.065 305.584 161.969 306.184 161.777 306.72C161.585 307.256 161.309 307.716 160.949 308.1C160.597 308.484 160.169 308.78 159.665 308.988C159.169 309.188 158.613 309.288 157.997 309.288ZM157.997 307.968C158.517 307.968 158.957 307.848 159.317 307.608C159.685 307.368 159.965 307.02 160.157 306.564C160.357 306.108 160.457 305.564 160.457 304.932C160.457 303.972 160.241 303.228 159.809 302.7C159.385 302.172 158.781 301.908 157.997 301.908C157.485 301.908 157.045 302.028 156.677 302.268C156.309 302.5 156.025 302.844 155.825 303.3C155.633 303.748 155.537 304.292 155.537 304.932C155.537 305.884 155.753 306.628 156.185 307.164C156.617 307.7 157.221 307.968 157.997 307.968ZM167.695 309.288C166.759 309.288 165.967 309.112 165.319 308.76C164.679 308.408 164.191 307.908 163.855 307.26C163.519 306.612 163.351 305.844 163.351 304.956C163.351 304.284 163.447 303.68 163.639 303.144C163.839 302.608 164.123 302.152 164.491 301.776C164.867 301.392 165.323 301.1 165.859 300.9C166.395 300.692 167.003 300.588 167.683 300.588C168.131 300.588 168.579 300.644 169.027 300.756C169.483 300.86 169.911 301.04 170.311 301.296C170.447 301.384 170.535 301.492 170.575 301.62C170.623 301.748 170.631 301.88 170.599 302.016C170.567 302.144 170.507 302.256 170.419 302.352C170.331 302.448 170.219 302.508 170.083 302.532C169.955 302.556 169.811 302.524 169.651 302.436C169.347 302.26 169.039 302.132 168.727 302.052C168.415 301.972 168.067 301.932 167.683 301.932C167.091 301.932 166.591 302.052 166.183 302.292C165.775 302.524 165.467 302.864 165.259 303.312C165.059 303.76 164.959 304.308 164.959 304.956C164.959 305.94 165.195 306.688 165.667 307.2C166.139 307.712 166.839 307.968 167.767 307.968C168.087 307.968 168.411 307.936 168.739 307.872C169.067 307.808 169.387 307.72 169.699 307.608L169.399 308.292V305.736H168.079C167.879 305.736 167.723 305.684 167.611 305.58C167.507 305.476 167.455 305.336 167.455 305.16C167.455 304.976 167.507 304.836 167.611 304.74C167.723 304.644 167.879 304.596 168.079 304.596H170.059C170.259 304.596 170.411 304.652 170.515 304.764C170.627 304.868 170.683 305.02 170.683 305.22V308.136C170.683 308.312 170.647 308.46 170.575 308.58C170.511 308.7 170.403 308.788 170.251 308.844C169.899 308.972 169.495 309.08 169.039 309.168C168.583 309.248 168.135 309.288 167.695 309.288ZM173.231 309.264C172.983 309.264 172.791 309.196 172.655 309.06C172.527 308.916 172.463 308.72 172.463 308.472V301.404C172.463 301.148 172.527 300.952 172.655 300.816C172.791 300.68 172.983 300.612 173.231 300.612C173.479 300.612 173.667 300.68 173.795 300.816C173.931 300.952 173.999 301.148 173.999 301.404V308.472C173.999 308.72 173.935 308.916 173.807 309.06C173.679 309.196 173.487 309.264 173.231 309.264ZM176.57 309.264C176.338 309.264 176.158 309.2 176.03 309.072C175.91 308.944 175.85 308.76 175.85 308.52V301.38C175.85 301.132 175.91 300.944 176.03 300.816C176.158 300.68 176.322 300.612 176.522 300.612C176.706 300.612 176.842 300.648 176.93 300.72C177.026 300.784 177.138 300.896 177.266 301.056L181.862 307.02H181.55V301.344C181.55 301.112 181.61 300.932 181.73 300.804C181.858 300.676 182.038 300.612 182.27 300.612C182.502 300.612 182.678 300.676 182.798 300.804C182.918 300.932 182.978 301.112 182.978 301.344V308.544C182.978 308.768 182.922 308.944 182.81 309.072C182.698 309.2 182.546 309.264 182.354 309.264C182.17 309.264 182.022 309.228 181.91 309.156C181.806 309.084 181.69 308.968 181.562 308.808L176.978 302.844H177.278V308.52C177.278 308.76 177.218 308.944 177.098 309.072C176.978 309.2 176.802 309.264 176.57 309.264Z" fill="white"/>
<path d="M185.481 125.668C181.94 125.668 178.545 124.261 176.041 121.758C173.537 119.254 172.131 115.858 172.131 112.318C172.131 108.777 173.537 105.382 176.041 102.878C178.545 100.374 181.94 98.9678 185.481 98.9678C189.02 98.9704 192.413 100.378 194.914 102.881C197.416 105.385 198.821 108.779 198.821 112.318C198.821 115.857 197.416 119.251 194.914 121.754C192.413 124.257 189.02 125.665 185.481 125.668Z" fill="#263238"/>
<path d="M183.361 120.388H186.611V112.248H188.881L189.121 109.528H186.611V107.978C186.611 107.328 186.741 107.078 187.361 107.078H189.121V104.248H186.871C184.451 104.248 183.361 105.318 183.361 107.358V109.528H181.671V112.248H183.361V120.388Z" fill="white"/>
<path d="M144.33 125.7C140.793 125.695 137.402 124.286 134.903 121.783C132.404 119.28 131 115.887 131 112.35C131 108.809 132.407 105.414 134.91 102.91C137.414 100.407 140.809 99 144.35 99C146.103 99 147.839 99.3453 149.459 100.016C151.079 100.687 152.55 101.67 153.79 102.91C155.03 104.15 156.013 105.621 156.684 107.241C157.355 108.861 157.7 110.597 157.7 112.35C157.7 114.105 157.354 115.842 156.682 117.463C156.01 119.084 155.025 120.557 153.783 121.797C152.541 123.037 151.067 124.02 149.445 124.69C147.823 125.359 146.085 125.703 144.33 125.7Z" fill="#263238"/>
<path d="M169.951 346.117C169.951 345.457 169.755 344.811 169.388 344.262C169.021 343.712 168.499 343.284 167.889 343.032C167.279 342.779 166.607 342.713 165.959 342.842C165.312 342.97 164.716 343.289 164.249 343.756C163.782 344.223 163.464 344.818 163.335 345.466C163.206 346.114 163.272 346.785 163.525 347.396C163.778 348.006 164.206 348.527 164.755 348.894C165.305 349.261 165.95 349.457 166.611 349.457C167.497 349.457 168.346 349.105 168.973 348.479C169.599 347.853 169.951 347.003 169.951 346.117Z" fill="white"/>
<g clip-path="url(#clip0_1437_1616)">
<path d="M151.809 112.149C151.809 111.494 151.756 111.016 151.641 110.52H144.156V113.478H148.549C148.461 114.213 147.983 115.321 146.92 116.065L146.905 116.164L149.271 117.997L149.435 118.014C150.941 116.623 151.809 114.577 151.809 112.149Z" fill="white"/>
<path d="M144.156 119.945C146.308 119.945 148.115 119.236 149.435 118.013L146.92 116.065C146.246 116.534 145.343 116.862 144.156 116.862C142.048 116.862 140.258 115.471 139.62 113.549L139.527 113.557L137.066 115.461L137.034 115.551C138.345 118.155 141.038 119.945 144.156 119.945Z" fill="white"/>
<path d="M139.62 113.549C139.452 113.053 139.354 112.521 139.354 111.972C139.354 111.423 139.452 110.891 139.611 110.395L139.607 110.29L137.115 108.354L137.033 108.393C136.493 109.474 136.183 110.688 136.183 111.972C136.183 113.257 136.493 114.47 137.033 115.551L139.62 113.549Z" fill="white"/>
<path d="M144.156 107.083C145.653 107.083 146.663 107.729 147.239 108.27L149.489 106.073C148.107 104.788 146.308 104 144.156 104C141.038 104 138.345 105.789 137.034 108.394L139.611 110.396C140.258 108.473 142.048 107.083 144.156 107.083Z" fill="white"/>
</g>
<defs>
<clipPath id="clip0_1437_1616">
<rect width="16" height="16" fill="white" transform="translate(136 104)"/>
</clipPath>
</defs>
</svg>
